<?xml version="1.0" standalone="no"?>
<!DOCTYPE svg PUBLIC "-//W3C//DTD SVG 20010904//EN"
 "http://www.w3.org/TR/2001/REC-SVG-20010904/DTD/svg10.dtd">
<svg version="1.0" xmlns="http://www.w3.org/2000/svg"
 width="592.000000pt" height="137.000000pt" viewBox="0 0 592.000000 137.000000"
 preserveAspectRatio="xMidYMid meet">

<g transform="translate(0.000000,137.000000) scale(0.100000,-0.100000)"
fill="#000000" stroke="none">
<path d="M60 1003 c0 -93 0 -93 20 -73 17 17 33 20 110 20 l90 0 0 -262 c0
-229 -2 -264 -17 -280 -15 -17 -12 -18 80 -18 89 0 120 9 82 24 -13 5 -15 44
-15 271 l0 265 94 0 c83 0 97 -2 109 -20 21 -30 27 -14 27 71 0 73 -11 107
-24 74 -5 -13 -44 -15 -270 -15 -242 0 -266 2 -275 18 -8 12 -10 -8 -11 -75z"/>
<path d="M1244 1075 c-5 -13 -45 -15 -275 -15 -247 0 -292 -4 -259 -25 6 -4
10 -118 10 -310 0 -192 -4 -306 -10 -310 -33 -21 11 -25 257 -25 234 0 269 -2
285 -17 17 -15 18 -13 18 72 0 85 -1 87 -18 72 -16 -15 -46 -17 -210 -17
l-192 0 0 90 0 90 126 0 c109 0 129 -2 140 -17 11 -15 13 -5 13 72 0 77 -2 87
-13 73 -11 -16 -31 -18 -140 -18 l-126 0 0 80 0 80 185 0 c172 0 186 -1 205
-20 l20 -20 0 90 c0 87 -4 107 -16 75z"/>
<path d="M5260 1003 l0 -93 20 20 c17 17 33 20 110 20 l90 0 0 -270 c0 -173
-4 -270 -10 -270 -5 0 -10 -4 -10 -10 0 -6 37 -10 90 -10 50 0 90 3 90 6 0 3
-7 12 -15 21 -13 13 -15 53 -13 271 l3 257 92 3 c84 2 93 1 112 -20 l21 -22 0
95 c-1 80 -3 91 -14 77 -12 -16 -37 -18 -276 -18 -239 0 -264 2 -276 18 -11
14 -13 4 -14 -75z"/>
<path d="M1592 1055 c-75 -21 -102 -37 -151 -90 -67 -73 -85 -122 -85 -240 -1
-94 1 -105 32 -167 62 -127 168 -183 327 -176 92 4 149 24 227 80 17 12 36 17
48 13 11 -3 20 -3 20 1 0 14 -71 134 -79 134 -5 0 -11 -10 -15 -22 -3 -13 -25
-35 -48 -50 -127 -79 -289 -53 -353 57 -73 123 -23 294 100 340 99 39 262 -2
295 -73 8 -17 17 -32 20 -32 6 0 80 125 80 135 0 3 -8 5 -17 3 -10 -1 -38 10
-63 24 -122 72 -232 93 -338 63z"/>
<path d="M2096 1051 c-3 -5 1 -14 9 -21 13 -11 15 -58 15 -308 0 -261 -2 -298
-17 -314 -15 -17 -12 -18 82 -18 94 0 97 1 82 18 -14 15 -17 41 -17 145 l0
127 171 0 171 0 -4 -132 c-2 -94 -7 -133 -15 -136 -7 -2 -13 -8 -13 -13 0 -5
41 -9 90 -9 50 0 90 4 90 9 0 5 -6 11 -12 13 -10 4 -14 74 -16 297 -2 251 -1
297 13 317 8 13 15 26 15 29 0 3 -40 5 -90 5 -49 0 -90 -3 -90 -7 0 -5 7 -17
15 -27 11 -15 15 -48 15 -128 l0 -108 -170 0 -170 0 0 120 c0 98 3 122 15 126
8 4 12 10 9 15 -7 12 -171 12 -178 0z"/>
<path d="M2850 1051 c0 -6 5 -13 10 -16 6 -4 10 -120 10 -316 0 -199 -4 -309
-10 -309 -5 0 -10 -4 -10 -10 0 -6 37 -10 90 -10 83 0 112 9 75 24 -22 8 -22
582 0 612 8 10 15 22 15 27 0 4 -40 7 -90 7 -50 0 -90 -4 -90 -9z"/>
<path d="M3140 1051 c0 -6 5 -13 10 -16 6 -4 10 -118 10 -310 0 -192 -4 -306
-10 -310 -27 -17 -2 -25 75 -25 86 0 97 4 70 24 -13 9 -15 42 -13 219 l3 207
170 -200 c161 -189 191 -230 166 -230 -6 0 -11 -4 -11 -10 0 -6 39 -10 97 -10
92 0 95 1 80 18 -15 16 -17 54 -17 321 0 258 2 302 15 307 33 13 -1 24 -74 24
-82 0 -100 -6 -76 -24 13 -9 15 -43 13 -215 l-3 -203 -163 193 c-147 173 -162
195 -157 221 l7 28 -96 0 c-53 0 -96 -4 -96 -9z"/>
<path d="M4110 1051 c0 -6 5 -13 10 -16 6 -3 10 -16 10 -29 0 -34 -227 -568
-250 -588 -11 -9 -20 -19 -20 -22 0 -3 46 -6 102 -6 97 0 100 1 85 18 -22 24
-21 36 5 99 l22 53 133 0 133 0 25 -56 c29 -65 31 -82 10 -90 -40 -16 -5 -24
97 -24 l112 0 -26 28 c-22 22 -268 567 -268 592 0 4 7 13 15 20 8 7 12 16 9
21 -7 12 -204 12 -204 0z m149 -289 c23 -56 41 -105 41 -107 0 -8 -180 -6
-180 3 -1 18 86 220 92 214 3 -4 25 -53 47 -110z"/>
<path d="M4580 1052 c0 -4 4 -12 9 -17 5 -6 11 -118 13 -250 3 -233 4 -242 28
-290 45 -89 129 -121 300 -113 118 6 179 32 218 91 l27 40 3 253 c3 205 6 255
18 265 28 23 13 29 -71 29 -85 0 -99 -6 -69 -31 14 -11 15 -41 12 -229 -3
-235 -6 -249 -65 -287 -33 -22 -152 -25 -200 -4 -64 26 -68 42 -71 287 -3 190
-1 222 12 233 30 25 16 31 -74 31 -49 0 -90 -4 -90 -8z"/>
</g>
</svg>
